<svg viewBox="0 0 512 512" xml:space="preserve" xmlns="http://www.w3.org/2000/svg"><g stroke="#000000" stroke-linecap="round" stroke-linejoin="round" stroke-miterlimit="10" stroke-width="20.148" class="stroke-6c6caa"></g><g stroke="#000000" stroke-linecap="round" stroke-linejoin="round" stroke-miterlimit="10" stroke-width="20.176" class="stroke-6c6caa"></g><g stroke="#000000" stroke-linecap="round" stroke-linejoin="round" stroke-miterlimit="10" stroke-width="20.176" class="stroke-6c6caa"></g><g stroke="#000000" stroke-linecap="round" stroke-linejoin="round" stroke-miterlimit="10" stroke-width="20.148" class="stroke-6c6caa"></g><g stroke="#000000" stroke-linecap="round" stroke-linejoin="round" stroke-miterlimit="10" stroke-width="20.176" class="stroke-6c6caa"></g><g stroke="#000000" stroke-linecap="round" stroke-linejoin="round" stroke-miterlimit="10" stroke-width="20.176" class="stroke-6c6caa"></g><g stroke="#000000" stroke-linecap="round" stroke-linejoin="round" stroke-miterlimit="10" stroke-width="20.148" class="stroke-6c6caa"></g><g stroke="#000000" stroke-linecap="round" stroke-linejoin="round" stroke-miterlimit="10" stroke-width="20.176" class="stroke-6c6caa"></g><g stroke="#000000" stroke-linecap="round" stroke-linejoin="round" stroke-miterlimit="10" stroke-width="20.148" class="stroke-6c6caa"></g><g stroke="#000000" stroke-linecap="round" stroke-linejoin="round" stroke-miterlimit="10" stroke-width="20.148" class="stroke-6c6caa"></g><g stroke="#000000" stroke-linecap="round" stroke-linejoin="round" stroke-miterlimit="10" stroke-width="20.176" class="stroke-6c6caa"></g><g stroke="#000000" stroke-linecap="round" stroke-linejoin="round" stroke-miterlimit="10" stroke-width="20.176" class="stroke-6c6caa"></g><g stroke="#000000" stroke-linecap="round" stroke-linejoin="round" stroke-miterlimit="10" stroke-width="20.176" class="stroke-6c6caa"></g><g stroke="#000000" stroke-linecap="round" stroke-linejoin="round" stroke-miterlimit="10" stroke-width="20.148" class="stroke-6c6caa"></g><g stroke="#000000" stroke-linecap="round" stroke-linejoin="round" stroke-miterlimit="10" stroke-width="20.176" class="stroke-6c6caa"></g><g stroke="#000000" stroke-linecap="round" stroke-linejoin="round" stroke-miterlimit="10" stroke-width="20.176" class="stroke-6c6caa"></g><g stroke="#000000" stroke-linecap="round" stroke-linejoin="round" stroke-miterlimit="10" stroke-width="20.148" class="stroke-6c6caa"><path clip-rule="evenodd" d="M232.929 240.053 66.75 115.736c-9.802-7.345-11.917-21.263-4.658-30.979h0c7.23-9.688 21.205-11.603 31.036-4.23l139.801 104.569v54.957zM471.382 253.913v190.476c0 26.206-18.633 47.611-41.409 47.611H75.409C52.633 492 34 470.595 34 444.389V253.913h198.929v42.039c-7.858 5.916-12.945 15.289-12.945 25.892 0 17.862 14.489 32.352 32.35 32.352 17.891 0 32.351-14.489 32.351-32.352 0-10.603-5.059-19.976-12.917-25.892v-42.039h199.614z" fill="#ffa620" fill-rule="evenodd" class="fill-f5d8b3"></path><path clip-rule="evenodd" d="M252.333 19.027h0c10.688 0 19.434 8.745 19.434 19.405v257.521c7.858 5.916 12.917 15.289 12.917 25.892 0 17.862-14.46 32.352-32.351 32.352-17.86 0-32.35-14.489-32.35-32.352 0-10.603 5.087-19.976 12.945-25.892V38.432c.001-10.661 8.747-19.405 19.405-19.405h0z" fill="#711400" fill-rule="evenodd" class="fill-f9e5d3"></path><path clip-rule="evenodd" d="M276.854 208.616h189.298c10.746 0 19.519 9.888 19.519 21.977h0c0 12.117-8.772 22.005-19.519 22.005H276.854v-43.982z" fill="#ffa620" fill-rule="evenodd" class="fill-f5d8b3"></path><path fill="none" d="M271.767 290.122h200.272M102.587 290.122h126.17M63.121 292.294v-.229"></path></g><g stroke="#000000" stroke-linecap="round" stroke-linejoin="round" stroke-miterlimit="10" stroke-width="20.148" class="stroke-6c6caa"></g></svg>